<svg id="Layer_4" data-name="Layer 4" xmlns="http://www.w3.org/2000/svg" viewBox="0 0 633 481"><defs><style>.cls-1{fill:none;stroke:#000;stroke-miterlimit:10;stroke-width:2px;}</style></defs><title>Artboard 1</title><path class="cls-1" d="M8,471.41c6.79,2.21,13.55.31,16.41-3.75a7.26,7.26,0,0,0,1.31-6c-1.61-5.13-12.16-5.78-16-1.5a6.34,6.34,0,0,0-1.35,6.25c1.13,2.75,4.81,3.19,7.27,2.75a12.2,12.2,0,0,0,6.12-3.5c.89-.83,6.9-6.48,5.5-12.75-.87-3.9-4.36-7.11-7.93-7.5-.63-.07-5.26.22-7.82,3.25-.94,1.11-1.85,3-1.25,4.25a4.78,4.78,0,0,0,4.31,2.5c1.07,0,4.25-1.45,7.32-3.25a17.83,17.83,0,0,0,6.87-7.75c1.12-2.27,3.66-7.4,1.28-11.5a8.15,8.15,0,0,0-8.84-3.75c-4.33.93-6.83,4.63-7.51,5.75-1.06,1.73-1.17,4.81.35,6.5a6.89,6.89,0,0,0,4.57,1c4.73-.52,7.1-.93,8.6-2a12.29,12.29,0,0,0,4.41-12.25,16.65,16.65,0,0,0-4.71-8.75c-5-4.74-7.1-2.84-8.06-2.5-2,.7-3.73,4.25-2.94,6.75.69,2.2,3.09,2.74,4.22,3a11.91,11.91,0,0,0,11.21-4c1.53-1.89,1.88-3.77,2.48-7,.45-2.43.86-4.58.23-7-.18-.71-1.77-6.45-7-7a8.34,8.34,0,0,0-6.9,2.25,7.53,7.53,0,0,0-2,7c1,3.56,5.21,4.71,8.5,4.25,4.95-.69,8-5,8.51-5.75a12.08,12.08,0,0,0,.38-13.5c-2.36-3.4-7.29-6.17-11-4.25-1.78.92-3.51,3-3.34,4.75.2,2,2.89,2.62,4.47,3s4.88,1.16,7.88-.75c4.53-2.88,4.56-9.62,4.57-11.75,0-2.84,0-6.37-2.8-8.25a8.58,8.58,0,0,0-9.34.5c-2.25,1.56-4.7,4.71-4,7,.83,2.64,5.36,2.48,7.65,2a13.07,13.07,0,0,0,5.48-2.75,16.49,16.49,0,0,0,5-7c1-2.36,2.55-6.31.72-9.75s-5.84-3.92-6.79-4c-1.17-.1-4.51-.37-7.1,2-.3.27-2.5,2.33-2.29,4.5.25,2.73,4.1,3.46,5.59,3.75s4.31.83,6.88-.75c3.65-2.24,4.33-7.07,4.63-9.25.15-1.09,1.24-8.86-3.88-12-.7-.43-4.36-2.51-7.66-.5-1.68,1-3.27,3.11-3.13,5,.16,2.23,2.65,3.09,4.59,3.75,1.62.55,4.46,1.53,7.5,0,2.35-1.18,3.58-3.23,4.63-5a16.19,16.19,0,0,0,2.45-8.25c-.07-5.42-3.77-11.4-8.81-11a8.45,8.45,0,0,0-6.16,3.75c-1.66,2.6-1.46,5.91.38,7.75,2.3,2.29,6.33,1.47,8.75,0,4.14-2.52,4.95-7.77,5.44-11,.3-1.94,1.82-11.89-3.58-13.75-3.08-1.06-8.44.51-10,4-1.06,2.44-.14,5.59,2.1,6.5,2.9,1.18,6.71-1.92,7.73-2.75,4.79-3.9,5.7-9.36,6.63-9.25.67.08.46,2.91.09,8-.12,1.62-.16,1.75-.26,3.18-.39,5.36-.58,8,.4,8.82,1.74,1.4,6.62.43,8.78-3,1.84-2.93,1.13-6.73-1.13-7.75a5,5,0,0,0-4.34.5c-4.57,2.66-5.48,11.32-3.7,16.75a6.22,6.22,0,0,0,1.72,3c3,2.56,9.73,2.1,12.31-1.75,1.67-2.48,1.67-6.51-.63-7.75s-6.22,1.18-8,3c-4.32,4.34-3.19,10.59-3,11.5.25,1.39,1.23,6.83,6.3,8.25,3.9,1.09,10-.26,12.29-4.5,2-3.72.7-8.93-2.32-9.5-2.66-.5-5.92,2.74-7.29,4.5a13.58,13.58,0,0,0-2.47,5.5c-.37,1.48-1.4,5.62.57,9.5.71,1.4,2.22,4.38,5.87,5a11,11,0,0,0,10-4.25c1.64-2.15,3.12-5.88,1.57-7.5s-5.29-.15-6.29.25-5,2.13-6.85,6.25a8.89,8.89,0,0,0,3.52,11.25,10.34,10.34,0,0,0,9.75,0c.24-.13,5-2.79,5.48-7,.21-1.71-.22-4.18-1.71-4.5-2.35-.51-6,4.65-6.76,5.75-2.35,3.33-5.46,7.74-3.78,11.5,1.51,3.36,6.15,4.63,10.18,3.25s6.16-5,6.85-6.25c2.09-3.66,2.92-8.81,1-9.75-1.4-.67-3.72,1.06-4,1.25-3.18,2.42-4.77,7.3-3.09,9,1.08,1.09,3.24.6,3.66.5,5.17-1.19,10.37-8.27,10.85-14.75.3-4.09-1.12-10.13-4.94-10.25-3.4-.11-8.18,4.49-7.87,7.75.19,2,2.26,3,3.38,3.5,3.35,1.56,8.1,1.21,12.22-1.25.37-.22,6-3.71,7.51-10,.17-.7,1.85-8.2-2.49-10a7.85,7.85,0,0,0-8.78,3,6.36,6.36,0,0,0-.26,5.75c1.47,3.59,5.64,4,6,4,3.9.29,7.13-2.31,8.62-3.5a18.81,18.81,0,0,0,5.19-6.75c1.07-2.19,4.53-9.25,1.2-12.5-1.9-1.86-5.51-2-8.41-.5-2.12,1.09-5.16,3.7-4.85,6.25.29,2.39,3.35,3.28,5.43,3.25a10.49,10.49,0,0,0,5.35-2c1.6-1,5.6-3.4,7.66-8,.36-.81,3-6.7.29-8.75-1.77-1.34-5.54-.84-7,1.25a4.48,4.48,0,0,0,.37,5c2.38,3.17,8.5,1.73,10.53,1.25a22.78,22.78,0,0,0,7.32-3.25c2.56-1.66,4.92-3.2,6.31-6,.16-.33,2.7-5.62-.21-8.75-2.58-2.78-7.9-2.17-10.84.5-2.64,2.4-2.64,5.82-2.63,9.25,0,6.25,2.9,10.79,6.21,13,1,.64,2.73,1.78,4.32,1a4.51,4.51,0,0,0,1.94-2.5c.67-1.75.54-4-.62-5-2.27-1.89-8.82,1-12.68,5.25-1,1.07-5.91,6.49-3.94,11,1.6,3.66,6.89,4.8,10.77,2.75.37-.19,3.44-1.87,4.09-4.75.8-3.56-2.36-5.34-5.62-5-2.52.26-4.58,1.12-7,4.25-1.74,2.25-4.89,6.43-5.66,12.25-.46,3.52-1.15,8.69,2.35,10.75s9.35.37,12.41-3.75c2-2.66,3.07-6.8,1.13-9.25-2.28-2.88-7.58-1.9-10.75,0-6,3.57-7.47,12.16-6.09,17.5.4,1.53,1.7,6.57,6,7a8.89,8.89,0,0,0,7.66-3.75c.81-1.18,2-3.62,1.13-5-1.28-2-6.24-.77-9.43,1-5.25,2.93-7.36,8.33-8,10-.95,2.43-2.39,6.12-.93,9.5,1.63,3.77,6.73,6.84,11.21,4.5,3-1.59,5.78-5.66,4.84-9-.85-3-4.28-4-6.84-3.75-4,.34-6.78,3.6-7.54,4.5-5,5.8-3.14,13.15-2.81,14.5.67,2.7,1.95,7.89,6.09,8s9.28-5,9-8.25c-.36-3.53-7.27-5.39-12-2.75-6.08,3.38-5.68,12.49-5.63,13.5.09,2,.29,6.38,3.8,8.25,2.52,1.34,7.2,1.65,9.47-1.25a5.7,5.7,0,0,0-.22-7.25c-2.42-2.34-7.16-.64-9.68,1-5.78,3.77-6.15,11.34-6.2,12.5-.11,2.23-.33,6.79,3.16,9,.36.23,4,2.6,7.91.5s5.95-7.49,4.31-10.25c-1.88-3.16-8.1-2-11.84.5-4.77,3.25-5.64,8.94-6,11.5-.77,5.06.29,11.45,5.75,12.75,2.57.61,6,1.68,8.18-1a6.44,6.44,0,0,0-.16-9c-2.85-3-8.11-3-11.37-.75-5.62,3.88-6.48,12.72-3.34,17.5,2.11,3.21,6.93,6,10.79,4,2.1-1.07,4-3.59,3.68-5.25-.52-2.41-5.86-3-10-1.25-3.27,1.33-7.27,4.64-7.41,8-.2,4.57,6.8,7.52,12.24,5.75a11.41,11.41,0,0,0,3.6-2"/><path class="cls-1" d="M211.66,455.74a6.77,6.77,0,0,1,4.31,7.67c-.63,3.94-3.88,6.11-7.23,7-5.4,1.43-10.15-2.25-9.77-7,.3-3.71,3.66-8.06,6.08-8s4.25,4.74,2.86,8.33c-2,5.2-10.3,7.36-15,7.67-7.34.47-16-2.93-15.59-8,.25-3.07,3.75-5.82,5.9-7,3.82-2.09,9.38-2.51,11.55.67,1.45,2.13,1.13,5.5-.41,8-4.14,6.74-16.38,6.1-18.39,6-4-.21-8.94-.47-11.24-4.33-1.51-2.55-2.33-7.45.88-10.67,2.85-2.86,8.08-3.58,9.9-1.33,2.27,2.8-1.91,8.76-2.31,9.33-3.08,4.4-8.92,8.1-14.69,7.67-4.12-.31-9.7-2.85-9.37-7.33.26-3.56,4.2-7.87,7-7.67s3.67,5,3.73,5.33a7.29,7.29,0,0,1-.49,4.67c-2.17,4.14-10.09,6.36-15,4-3.84-1.83-4.77-5.9-5.26-8-.23-1-2.41-10.54,3.76-15.67,3.81-3.16,10.34-4.28,12.57-1.33,1.81,2.39,0,6.39-.18,6.67-2,4.22-7.17,7.63-10.51,6.67-2.3-.67-3-3.19-3.67-5.67-.38-1.38-2.74-10.69,3.68-19a18.81,18.81,0,0,1,7.39-6c1.33-.57,5.44-2.33,7.45-.67,2.34,1.93,1.24,8-2.67,11.33-3.67,3.1-8.87,2.9-11.45.67-4.18-3.62-.53-11.77.47-14,2.77-6.19,9-13,13.17-12.33a4.09,4.09,0,0,1,3.35,3.67c.2,2.8-2.82,5.25-3.33,5.67-2.76,2.23-6.88,3.14-9.63,1.67-4.27-2.29-3-9.13-1.83-12.33.21-.57,3-8,9-9.67,2.7-.75,7-.6,7.65,2,.49,2-1.24,4.4-2.67,5.67-2.93,2.62-7.44,3-9.9,1.33-4.67-3.14.34-13.29.86-14.33,1.12-2.25,4-8,8.14-8.33a5.45,5.45,0,0,1,5.51,4.67c0,.16.52,3.6-1.61,5.33-2.44,2-6.34.11-7.27-.33a12,12,0,0,1-6.49-9.5c-.88-7.58,4.61-17.63,10.56-18.75,3.2-.6,7.07,1.28,7.91,4.75a7.94,7.94,0,0,1-2,7,8.34,8.34,0,0,1-8.69,2.5c-.47-.18-2.16-.91-3.5-4.25-.57-1.42-3.8-9.44,1.5-17,2.44-3.48,7.61-8.18,11.78-7.25a5.11,5.11,0,0,1,4.07,5.25c-.28,3.15-3.59,5.26-4,5.5a8.85,8.85,0,0,1-10.37-.75c-4.36-4.09-.55-12.15-.25-12.75,2-4.06,6.16-8.24,10.84-9,.55-.09,5.15-.78,6.19,1.75.7,1.7-.51,4.12-2,5.5a8.18,8.18,0,0,1-9.18,1c-3.35-1.92-3.38-6.4-3.4-10.5,0-3.86,0-6.79,2.09-9,3.88-4,12.58-3.27,13.29-.25.47,2-1.78,5.34-4.69,6.75a7.23,7.23,0,0,1-5.79.25c-4.24-1.74-4.38-8.32-1.83-13.75a11.29,11.29,0,0,1,7.15-6.5c5.06-2,10.24-1.49,13.57,1,2.21,1.65,6.34,4.92,4.25,8.5-1.44,2.48-5.51,4.15-8.28,3-3.38-1.4-3.45-6.43-1.62-9.25,3-4.69,11.59-3.77,14.12-3.5,3.11.33,10.09,1.08,10.74,5.75.37,2.7-1.48,5.88-3.87,7.75-2.78,2.17-7.15,3.22-8.51,1.5-1.53-1.94,1.43-6.52,1.73-7,3.48-5.39,11.38-10.14,17.45-8.25.61.19,5.94,1.95,5.81,6.75a9.46,9.46,0,0,1-4.82,7.5c-2.14,1.2-5.49,1.92-6.59.5-1.45-1.88,1.62-6.77,4.18-9.5.65-.7,7.17-7.48,14.06-6,.54.12,5.26,1.22,6.49,5.75.19.71,1.36,5.41-2,8.5-2.37,2.19-6.4,3-8.22,1.25-2-2-.27-6.12-.1-6.5,2.31-5.3,9.39-8.4,14.75-8.5,1.78,0,4.47-.08,6.19,1.75,3,3.21,1.65,10.72-2.59,13.25-2.3,1.37-5.62,1.38-6.25,0-1-2.28,5.39-8.1,7.22-9.75a46.3,46.3,0,0,1,6.63-5"/><path class="cls-1" d="M214.82,398.16c-.29.38-3.76,4.81-8.59,4.75-4.13,0-7.68-3.36-7.18-7.5.67-5.46,8.08-9.63,10.25-8.5,1.55.8,1,4.61-.28,7.25-2.72,5.58-10.12,8.69-15.79,8.75-1.78,0-8.89-.21-11-5.5-.09-.22-1.14-5.53,2.34-9,3-3,9.23-3.11,11-.25s-2.85,7.74-3.2,8.25c-4.29,6.13-12.67,6.25-13.6,6.25-2.09,0-5.61,0-7.56-2.5-3.17-4.06-.48-12.6,3.51-14.25a4.14,4.14,0,0,1,4.37.75c2.35,2.34.44,8.29-3.07,11.75-.53.52-4.73,4.55-9.12,3.5-3.73-.89-5.49-4.94-4.71-8.75"/><path class="cls-1" d="M279.32,320.41a10.94,10.94,0,0,0-14,1.5,9.07,9.07,0,0,0-2.16,8c1.18,4.64,7.1,7,11.16,4.75,2.12-1.17,4.12-3.8,3.76-5.75-.51-2.82-5.91-3.88-9.85-2.25-5.86,2.43-8.71,10.88-8.45,16.75.21,4.75,2.64,11.9,7.47,11.5,3.5-.29,7.5-4.49,8.29-8.75.53-2.85-.17-6.76-3.13-7.75-3.51-1.18-7.78,2.55-8.87,3.5-6.78,5.92-6.32,15.09-6.28,15.75.34,5.09,3.12,12.14,8.13,12,2.44-.07,5.39-1.84,6.21-4,1.35-3.55-3-8.36-7.38-7.75-5.61.77-8.42,9.9-8.6,10.5-1.13,3.83-1.72,10.85,2.91,13.25,3.17,1.64,8.75,1.12,11.15-2.25,1.28-1.8,1.62-4.39.56-6-1.8-2.73-7.15-1.87-10.5,0-6.09,3.41-7.48,11.27-8,14-.59,3.3-1.86,10.49,2.66,13.25a9.17,9.17,0,0,0,10.72-1.25c3.24-3.05,3.87-8,1.65-10.75-2.52-3.09-7.7-2.08-10.66-.5-6.63,3.54-9.36,13.81-6.82,20.25,1.36,3.45,5.12,8,9.31,6.75,2.78-.86,5.48-4.24,5.19-6.75-.37-3.24-5.66-4.64-9.43-3.25-5.74,2.11-9.28,11.17-7.84,17.5,1.22,5.32,6.31,10.2,10.71,8.75a7.7,7.7,0,0,0,4.68-5.25c.81-3.49-1.89-6.82-4.77-7-4.61-.29-10.27,7.5-12.17,13.75-.69,2.25-2.13,7,.4,10.5,2,2.77,6.74,5.27,10.52,2.75,3.08-2.06,4.73-6.94,2.93-9.5s-6.74-1.55-9.16-.5c-6.57,2.84-11.72,12.06-9.51,18.5,1.23,3.59,5.11,7.37,9.65,6.25,2.88-.71,6.13-3.42,6.31-6,.22-3.25-4.47-5.5-8.41-4.75-5.17,1-9.89,7.31-9.5,12.75.27,3.74,3,7.67,7.63,7.75,3.78.07,8.29-2.23,8.46-4,.15-1.56-3.08-2.68-5.6-2.75-4-.11-9,2.32-10.75,6.17a7.27,7.27,0,0,0-.64,2.67"/><path class="cls-1" d="M390.35,322c-2.41-2.77-5.92-4.35-9.08-3.33-6.4,2.07-10.67,12.77-7,17,2.88,3.32,10.9,2.87,13.9-1.33,2-2.85,1.89-7.59-.75-9-2.92-1.57-7.51,1.69-8.41,2.33-6.68,4.75-11.24,15.6-7.25,20.33,2,2.41,6.37,3.33,10,1.67,2.25-1,5.05-3.37,4.94-5.33-.14-2.5-5-4.06-8.86-2.67-5,1.82-7.9,8.49-7.68,13.33,0,.77.3,6.77,4.92,8,2.74.73,7.21-.18,8.92-3.33,1.1-2,.88-4.66-.61-6-2.56-2.3-7.54.35-8.12.67-5.6,3.07-7.27,9.9-7.78,12-.63,2.58-2.1,8.61,1.49,12.33,1.74,1.8,5.86,4.29,9.65,2a8.57,8.57,0,0,0,3.65-9.33,6.18,6.18,0,0,0-6.24-4.33c-5.71.49-10.69,10-12.08,16.5-.56,2.61-1.3,6.09.71,8.75a7.87,7.87,0,0,0,9.35,2.25c2-.89,4.78-3.08,5-5.75.3-3.39-3.63-5.71-6.87-5-2.2.48-3.65,2.27-5.25,4.25-1.36,1.67-4.75,5.86-5,11.5-.17,3.51.74,10,5.52,11.25a8.2,8.2,0,0,0,7-1.5,7.87,7.87,0,0,0,3.06-6c-.1-3.66-4-5.84-7.28-5.5-5.37.56-9.07,7.81-10.28,11.5-.62,1.88-2,6.11.07,9.5,2.33,3.81,8.34,5.45,11.47,3a5.41,5.41,0,0,0,2-4.5c-.32-3-4.55-4.65-7.84-3.75-5.64,1.54-7.75,10.23-8,11.25S355.59,434,360.57,437c2.23,1.34,6.66,2.15,9.63-.75,2.33-2.27,2.94-6,1.45-8.25-2-3-7-1.93-9.62-.75-5.12,2.32-8.39,8.43-8.13,13.5.2,4,2.63,8.64,7.16,9,3.78.3,8.72-2.42,9.13-5,.32-2-2.08-3.33-2.38-3.5-3.3-1.88-7.71.2-8.34.5a15.49,15.49,0,0,0-8.22,14c.09,1.24.29,4.14,2.57,5.25,2.55,1.24,7.2,0,8.53-3,.9-2.06.16-4.72-1.78-5.5-2.4-1-5.41,1.44-6.1,2-4,3.24-6.73,10.2-3.81,14.5s9.14,3.11,9.72,3c7.54-1.4,13.35-9.75,13.53-15.75.06-1.89-.4-5.23-2.28-5.5s-4,2.26-5,4c-1.16,2-1.94,5.27-.6,6.25,1.9,1.4,7.55-2.18,11-5.5.87-.85,8.41-8.32,6.51-14.25-.69-2.16-2.9-4.95-5.75-4.25-2.57.63-4.71,3.86-4.65,6.5.08,3,2.94,4.28,3.46,4.5,4.23,1.79,10.06-1.41,13.21-4,4.49-3.7,9.25-10.89,7.07-16-1.09-2.56-4.3-5.44-8.25-4.25-3.5,1.06-6.62,5-6.2,8.25.46,3.56,5,4.37,5.71,4.5,6.19,1.11,12-4.63,12.38-5,.74-.75,4.3-4.35,4.63-9.25.3-4.48-2.11-9.59-5.37-9.25-2.14.22-4.61,2.8-4.93,5.25-.42,3.22,3,5.44,5.82,5.25,5.06-.33,8.62-8.25,9.18-9.5,2.29-5.09,2.82-11.69.45-12.5-1.52-.52-4,1.41-5.28,3a7.52,7.52,0,0,0-1.6,6.25c1.41,5.42,12.75,7.16,17,2.75,2.45-2.54,3-7.61.84-9-1.65-1-4.73,0-6.56,1.75-4,3.73-3.94,12.36.72,15.75,3.95,2.87,11.1,1.91,12.63-.75,1.11-1.93-.42-5.27-2.74-5.75-3.63-.75-10.37,5.29-10.69,11a7.87,7.87,0,0,0,3.1,6.5c3.93,3.17,11.4,3.29,14.34-.5,1.68-2.16,1.88-5.59.28-7.25-2.47-2.55-9-.67-11.82,3.25-3.49,4.88.51,10.55,1,11.25,2.91,4,9.24,6.5,13.34,3.75,2.37-1.6,4.1-5,3.19-6.75-1.15-2.18-6.64-1.71-9.68,1-3.72,3.32-3.08,9.38-1.25,12.75a10.34,10.34,0,0,0,7.37,5c2.81.42,8.71.21,11.16-3.75,1.53-2.46,1.53-6.05-.43-7.5-2.55-1.88-7.51.54-10.07,3.25-4,4.24-3.72,10.82-1.35,14.75,2.74,4.54,9.39,7.44,13.16,4.75,2.59-1.84,4.07-6.48,2.29-8.75-2.08-2.66-8-1.34-10.26,1.5-3.06,3.9,0,11.84,4.84,12.25s9.54-6.67,11.4-10.75c3.31-7.27,2.23-16-.84-16.5-1.88-.29-5,2.44-5.38,5s2.17,5.23,4.16,4.75c3.5-.84,7.42-11.7,4.69-19.5-.15-.44-3.15-8.67-8.18-7.5-2.8.65-5.55,4-5.78,7.25a6.21,6.21,0,0,0,6.6,6.5c5.13-.55,9.9-9.64,10.91-16.5.76-5.11.07-13.33-4.94-14.5a8.17,8.17,0,0,0-7.78,3c-2.62,3.49-1.28,8.82,2,10,4.21,1.52,9.74-4.56,10.13-5,6-6.76,6.12-18.15.56-23-1.83-1.59-5.53-3.58-8.15-2-3.18,1.92-4.44,8.93-1.07,11.75,1.9,1.59,5,1.61,7.41.5,5.61-2.56,6.7-10.66,6.91-12.25.73-5.41-.63-13.07-5.33-13.75a8,8,0,0,0-6.78,3c-1.4,1.74-2.3,4.39-1.35,6.25,1.35,2.66,5.77,2.35,8.53,1.25,4.11-1.63,6.14-5.66,7.45-8.25,1.21-2.39,4.77-9.42,1.51-14.25a8.36,8.36,0,0,0-8.63-3.5c-.71.16-4.5,1.09-6,4.25-1.66,3.51,1.06,6.48,1.31,6.75a6.23,6.23,0,0,0,6.44,1.75c.59-.21,2.27-.91,4.93-5.25,2.85-4.65,5.06-8.26,4.45-12.5s-3.74-8.54-8-8.25a8,8,0,0,0-5.53,3c-1.31,1.77-2,4.43-.81,6,1.72,2.33,6.3.72,6.91.5,5.7-2.08,8.27-8.64,8.76-10,.74-2,2.31-6.38.18-9.5-2.7-3.93-10.1-4.19-12.53-1.25a5.33,5.33,0,0,0-.06,6c1.82,2.71,6.09,2.41,8.78,1.25,4.89-2.12,7.37-8.29,7.25-12.75s-2.91-9.53-7.32-9.5c-2.9,0-6.69,2.22-7,4.5-.31,2,2.22,3.51,3.79,4,3.44,1.08,6.9-1,7.22-1.25,3.75-2.38,6.12-7.35,4.9-10.75-1.46-4-7.93-5.72-13.94-1.75"/><path class="cls-1" d="M556.67,456.25c.36,8.47-1.91,14.88-5.07,16-2.57.91-5.51-1.74-6.79-4-2.4-4.22-1.17-10.82,1.37-12,2-.92,5.25,1.2,5.79,4,.82,4.18-4.54,9.44-9.28,11.5a13.5,13.5,0,0,1-8.88.75c-5.61-1.56-10.41-7.65-8.09-12.25,1.76-3.5,7.72-6.3,11.29-4.5a5.21,5.21,0,0,1,2.74,5.75c-.56,2.3-2.69,3.76-4.93,5.25a24.55,24.55,0,0,1-12,4.5c-9.25.58-18.05-5.58-16.94-10.25.65-2.74,4.6-4.53,5.09-4.75a8.74,8.74,0,0,1,8.66.5,7.4,7.4,0,0,1,2.41,9c-2.74,5.46-12.75,5-13.88,5-1.71-.07-7.1-.37-10.46-4.5-1.52-1.87-4-6.25-2-8.75,1.58-1.92,5.65-2.48,7.13-.75s-.2,5-1.23,7A16.17,16.17,0,0,1,494,471.5a12.07,12.07,0,0,1-11.82-1c-.69-.53-4.59-3.48-3.75-8.5.71-4.26,4.73-9.35,8.63-9.25,3.42.09,5.46,4.14,5.13,7.75-.3,3.34-2.73,7.41-5.12,7.75-3.14.45-5-5.72-5.63-7.75-1-3.32-2.48-8.15.13-13.5,3.11-6.37,11.08-11.64,14.51-10,2.22,1.06,3,5.24,1,8.5s-6.08,4.65-8.71,4c-5.74-1.43-4.22-12.8-4.12-13.5.78-5.43,4.1-13.92,9.14-15,2.83-.61,6.3,1.1,6.79,4s-2,5.55-2.59,6.17c-2,2.21-5.46,4.11-8.12,3.5-4.4-1-4.86-8.5-3.09-13.67.36-1,2.58-7.17,8-9.33,2.23-.89,6.53-1.73,7.88.67,1,1.7.17,4.56-1.56,6-2.64,2.2-6.75.46-8.66-1-4-3.07-3.39-8.84-3.21-10.17.11-.75,1.3-8.42,7.36-11.5,2.27-1.15,6.68-2.4,8.83,0,1.86,2.08,1,5.79-.61,8.17-2.66,3.86-8.25,5.35-11.18,3.83-4.5-2.33-2.15-11.49.21-16.33.66-1.35,4-8.28,8.92-9,1.72-.25,3.9.22,4.68,1.83,1,2.07-.58,5.52-2.68,6.67-3.38,1.85-9.54-1.55-10.8-6.83-1.12-4.73,2.06-9.36,3.3-11.17,2.69-3.91,8.05-8.93,11-7.83,2.64,1,2.06,6.17,2,6.5-.08.66-.64,5.27-4.13,7.33a7.8,7.8,0,0,1-8.69-.83c-5-4.33-2-16.81,4.84-23.67,2.73-2.72,7.61-6.1,9.85-4.83s.95,6.18.82,6.67c-.35,1.37-1,4-3.11,5.33-2.88,1.78-6.83-.08-8.81-2-3.7-3.58-3.25-10-1.25-14.67,1.89-4.4,6.62-10.58,11.16-10.33a5.05,5.05,0,0,1,4.81,4.83c0,3.66-4.79,7.37-8.46,7.33-2.92,0-4.49-2.44-5.08-3.33-2.73-4.18-1.48-10.39,1.12-14.83.7-1.2,3.55-6.09,9.11-8.17,1.05-.39,7.15-2.68,9.91.5,2.62,3,1.23,9.74-2.95,12-3.67,2-8.77.13-9.3-3-.35-2,1.33-4.17,1.85-4.83,3.74-4.75,11.71-7.27,17.58-5.17,5.25,1.88,9.52,7.72,7.47,11.5-1.47,2.71-6.43,4.8-9.39,3.17-2.5-1.38-2.88-5-1.81-7.67,2.17-5.37,10.81-7.64,16.32-7.5,2.19.06,9.27.24,10.59,5.17a9.32,9.32,0,0,1-4.23,9.83c-3.22,1.84-7.67,1.37-8.79-1.17-1.46-3.3,3.55-8.2,4-8.67,4.7-4.59,13.57-7.61,17.18-3.83,3.13,3.28,1.68,11.06-1.82,13.17-1.41.85-3.41.92-4.33,0-1.6-1.61.2-6.14,2.72-8.83,2.91-3.1,8.48-5.59,11.92-3.33,4.16,2.73,2.67,10.78-.2,12.5-1.77,1.06-4.8.17-5.37-1.67-1.24-4,8.48-14.48,13.32-13.17,4,1.08,5,10.19,1.36,14-.74.77-2.14,1.79-3.1,1.5-1.85-.56-2.13-6,.73-9.83a11.77,11.77,0,0,1,7.07-4.17"/><path class="cls-1" d="M556.25,395.33a7.87,7.87,0,0,1-3.2,6.83c-2.83,2.08-6.32,1.66-8,.17-3.42-3-.83-11.23,3.32-13.17,2-.94,4.79-.59,5.66,1,1.46,2.68-3.17,7.7-3.61,8.17s-7.22,7.63-14,5.83c-5.6-1.47-8.88-8.3-6.27-12.67,1.79-3,6.66-5.37,9.34-3.83,2.47,1.42,2.12,5.63.86,8.33-2.3,5-8.66,7.06-12.63,7.33-1,.07-8.62.6-9.93-4.17-1.22-4.46,3.84-10.76,6.21-10.67,1.64.06,2.61,3.2,2.14,5.83-.53,2.95-2.79,4.91-3.86,5.83-.65.56-6.79,5.73-11.75,3.33-4.2-2-4.7-8.11-2.41-11.83.9-1.47,2.91-3.65,4.78-3.5s2.65,2.4,2.82,3.83c.58,4.62-4.29,11.62-9.65,12.17a7.06,7.06,0,0,1-5.34-1.83"/><path class="cls-1" d="M618.36,318.17c-4.84.61-8.37,3.76-8.62,6.33-.32,3.31,4.86,4.76,5.15,4.83,2.07.55,6.6.93,8.85-2,1.41-1.83,1.77-4.75.39-6-1.74-1.58-5.44.18-6.81.83-4.25,2-10.54,7.32-10.44,13.83.07,4.55,3.28,9.31,7.88,9.17a8.4,8.4,0,0,0,6.87-4,5.94,5.94,0,0,0-2.12-7.83c-2.86-1.68-6.53,0-6.86.17-5.29,2.52-6.86,9.53-7.57,12.67-.77,3.43-1.79,8,.84,10.33,1.93,1.73,4.94,1.48,6.76,1.33,2.21-.18,4.63-.38,6-2.17a5.37,5.37,0,0,0-.46-6.83c-2.38-2.34-6.55-.79-6.88-.67-5.49,2.12-7.48,9.37-8,11.17-.67,2.43-1.52,5.56,0,8.33a7.46,7.46,0,0,0,8.55,3.5c1.92-.6,4.63-2.32,5-4.5S614.9,363,614,362.5a8.41,8.41,0,0,0-7.25-.5c-4.5,1.84-6.67,7.22-6.61,11,0,1,.22,4.6,3.32,6.67a8.21,8.21,0,0,0,6.82,1c2.34-.67,5.53-2.6,5.6-4.33.08-2.07-4.29-3.89-8.17-2.83-5,1.36-7.7,7.1-8.84,9.5-1.49,3.14-3.64,7.68-1.47,11.17a8.12,8.12,0,0,0,10.39,2.5c2.58-1.26,5.82-4.35,5.58-8A5.79,5.79,0,0,0,607,383.5c-2.89.23-5,2.47-6.34,3.83a18.46,18.46,0,0,0-4.88,13.5c.08.85,1,9.19,6.46,9.67,2.73.24,6.72-1.45,7.76-4.33.91-2.5-.8-4.8-2.3-5.83-2.3-1.58-5.54-1.16-7.83,0-4.7,2.38-6.28,8.28-6.25,11.83,0,1.22,0,5.76,3.65,7.67a7.76,7.76,0,0,0,7.73-.33c1.68-1.1,3.58-3.32,3.19-4.83-.48-1.84-4.2-2.08-6.93-1.33-5.26,1.44-8.92,7.15-10.33,11.33-.72,2.14-2.26,6.7.24,10a8.14,8.14,0,0,0,10.12,2.17c2.42-1.27,5-4.12,4.93-7.17-.11-3.39-3.51-4.93-5.92-5.17a10,10,0,0,0-6.13,1.67c-4.88,3.28-6.59,10.61-4.9,15.5a8.63,8.63,0,0,0,5,5.5c2.11.76,6.32,1.27,8.21-1.17a4.39,4.39,0,0,0,.21-5c-1.94-2.62-7.34-.57-7.94-.33A15.55,15.55,0,0,0,586,450.5c-.3,1-2.2,7.56,2,10.33,3.2,2.11,8.59,1.16,11.55-2.17,1.69-1.9,3.09-5.13,1.93-7.17-1.49-2.61-6.48-2-9.61-.33-5.32,2.77-8.83,10.23-6.67,15.17a7.41,7.41,0,0,0,7.21,4.5c3.29-.22,7.07-2.65,7.1-4.33,0-1.83-4.4-3.23-8.28-2.17-5.27,1.44-8,7-8.35,7.67"/><path class="cls-1" d="M19,255.76c-.25,6,3.48,10.54,7.67,11a7.67,7.67,0,0,0,7-3.33c2.85-4.31.33-11.24-3-12-2.61-.59-6.43,2.45-6.33,5,.16,4,8,9.4,15,7.67s11.74-10.3,9.67-14c-1.79-3.19-9.33-3.91-11.33-1-1.46,2.13.44,5.6.67,6,2.4,4.26,7.95,5.49,11.67,5.33.44,0,7.89-.46,11.67-6.67,2.07-3.41,3.69-9.63.67-12-2.56-2-8.11-1-9.67,2.33-1,2.24,0,5,1.33,6.67,3.65,4.44,11.51,2.94,14.67,2.33,4.67-.89,9.7-1.86,11.33-6,1.71-4.35-.88-10.81-5.33-12a6.75,6.75,0,0,0-6.67,2,7.09,7.09,0,0,0-.33,8.33c3.09,4.21,11.91,2.44,17-.33,2-1.09,4.77-2.6,5.67-5.67,1.19-4.09-1.34-9.7-4.67-10a5.46,5.46,0,0,0-5.33,4.67c-.28,3.12,3.2,5.19,4,5.67,4.06,2.42,9.8,1.66,13.67-1.33,2.62-2,6.08-6.41,4.75-10.83a7.5,7.5,0,0,0-5.5-5.25c-2-.38-4.95.13-6.25,2.25-1.4,2.28-.4,5.52,1.25,7.25,3.68,3.87,12.06,1.82,17-1.5,1.78-1.19,5.23-3.52,6-7.75.52-2.87,0-7.8-3.5-9.25a6.7,6.7,0,0,0-7.25,2c-2.41,2.78-2.08,7.4,0,9.5,3.58,3.62,13.24.71,18.5-4.75,1.13-1.17,5.43-5.63,4.5-11.25-.55-3.3-3-7.5-6-7.5-3.2,0-5.73,4.71-6,8.5,0,.56-.34,5.51,2.5,7.25,4,2.47,12.12-3,16.25-9,2.4-3.52,6-10.92,3-14-2.74-2.84-10.46-1.42-11.5,1.75-.6,1.82,1.05,4.08,2.5,5.25,3.78,3,10.37,2,14.25-1,6.82-5.28,7.26-18.12,2-21.75-3.63-2.5-10.81-1.2-12.25,2.5-1.33,3.42,2.35,8.61,7,10s9.28-1.25,11.5-4.5c3.3-4.84.94-10.75-.25-13.75-2.55-6.4-8.64-13-12-11.75-2.52.92-4.28,6.52-1.75,10.25a7.74,7.74,0,0,0,8.75,2.75c4.85-1.79,5.47-9.13,5-13-.6-5-3.8-11.06-8.5-11.75-2.13-.31-5.07.4-5.75,2.25s1.18,4.51,3.25,5.5c3.74,1.78,9.52-1.1,12-5.5,2-3.49,2.27-8.65-.75-12.25-3.15-3.76-9.4-5.2-12.5-2.5-1.91,1.66-2.8,5-1.5,6.75,1.63,2.14,6.38,1.26,9.25-.5,4.81-2.95,7.05-10.06,5-15.75-1.71-4.74-6.75-9.49-10.5-8.25-2.2.72-3.92,3.49-3.75,6.25s2.24,5.39,4.5,5.75c4.07.64,9.29-6,10-12.5.42-3.87-.47-10.34-5.25-12.75-3.08-1.56-8.32-1.7-10.25,1.5a6.28,6.28,0,0,0,1,7.25c3,3,8.29.89,9.25.5,3.65-1.49,8-5.47,7.75-11s-5.2-10.37-10-10.5c-3.48-.09-7.74,2.19-7.75,4.75,0,1.7,1.87,3.39,3.75,3.75,3.35.64,5.83-3.09,6.25-3.75a9.06,9.06,0,0,0-.25-10c-2.53-3.39-7.76-4.73-9.5-3-1.12,1.12-1,3.75.25,5,2.56,2.49,11.11.73,14.25-5,2.17-4,1.93-10.14-2-13-2.81-2-7.7-2.54-10.25.25a6,6,0,0,0-1.25,6c1.3,3.3,6.18,4.65,9.25,3.5,5.17-1.93,7-11.61,4.25-18.5-.41-1-3.68-8.88-10.5-9.25-5.05-.27-11,3.62-10.75,7.75.23,3.42,4.75,6.94,8,6,4.09-1.19,4-8.81,4-9.5a16,16,0,0,0-4.75-10.75c-.94-1-6.92-7.09-11.75-4.75a7.68,7.68,0,0,0-3.75,8c.37,2,1.83,4.94,4.25,5.25s4.91-2.24,5.75-4.5c2.26-6.07-4.5-16.47-11.5-16.25a8.88,8.88,0,0,0-7.75,5.5c-.1.29-1.33,4,.75,5.75,1.5,1.3,4,1,5.5,0,2.94-1.91,2.62-6.57,2.5-8.25-.08-1.13-.55-7.86-6.25-11.25-3.21-1.91-9.32-3.5-12.5,0a7.86,7.86,0,0,0-.75,9c1.23,2,3.92,4.16,6.25,3.5,3.49-1,3.74-7.52,3.75-8,.16-6-4-12.35-10-14.75-4.76-1.9-11.66-1.71-13.25,1.5-1.07,2.16.57,5.06,1.25,6.25.27.47,3.19,5.49,6.5,5,3.1-.46,4.94-5.51,4.75-9.25-.34-6.78-7.44-10.47-8-10.75"/><path class="cls-1" d="M143.74,185.34c-1.83,7.75,1.46,14.35,6,15.75a9,9,0,0,0,9.25-3c1.14-1.48,2.41-4.29,1.25-6-1.39-2-5.84-1.88-8.25,0-3.9,3-3.92,11.7.75,16s13.17,3.62,15.25,0c1.2-2.1.45-5.57-1.5-6.75-2.74-1.66-7.94,1.13-9.25,4.75-1.63,4.51,2.88,9.93,7,12.25,7.43,4.2,18.07.83,18.5-2.25.31-2.2-4.46-5.31-9-5.5-2.85-.12-7.41.83-8.5,3.75-1.43,3.82,3.93,8.81,7.25,11,6.83,4.5,17,5,19,1.5,1.26-2.25-.51-6.58-3.5-7.75-3.33-1.3-7.54,1.56-8.75,4.75-1.78,4.7,3,10,6.5,12.25s10.1,4.23,13.5,1c2.61-2.48,3-7.6,1.25-8.75s-5.8,1-7,4c-1.66,4.15,2.42,9.79,6.75,12.25,6.47,3.67,16.29,1.83,17.75-2.5,1.13-3.36-2.38-9.44-7.25-9.75a7.68,7.68,0,0,0-7.5,5.25c-1.37,5.1,5.19,11.07,11,13.25,6.67,2.5,15.77,1.3,17.25-2.75,1-2.81-1.38-7.67-5-8.25-2.9-.46-5.84,1.94-6.75,4.5-1.54,4.34,2.65,9.44,6.75,11.5a13,13,0,0,0,10.5.25c.39-.17,7.21-3.18,6.5-7.25-.56-3.23-5.64-5.77-8.25-4.25s-2,6.12-1.25,8.5c1.9,6.27,8.79,8.37,9.25,8.5,4.89,1.4,12.37.62,14-3.75,1-2.78-.33-6.9-3.25-8.25-3.73-1.72-8.77,1.66-9.75,5.25-1.32,4.83,4.5,10.87,10.25,11.25a10.86,10.86,0,0,0,7.5-2.75,12.91,12.91,0,0,0,4.25-9.75"/><path class="cls-1" d="M14,186.34c.06.32,1.06,5.17,4.5,6.25,4.13,1.3,9.58-3.56,9.5-8.5-.05-3.23-2.48-7.14-5.75-7.25-3.44-.11-6.39,4-6.25,7.25.21,4.92,7.63,8,12.5,8.75,6.47,1,15.47-1.26,16.5-6.25.75-3.65-2.67-9.13-7-9.25a6.81,6.81,0,0,0-6.25,4.25,7.58,7.58,0,0,0,.75,6.25c3.07,5.53,11.26,5.9,13.5,6,2.94.13,11.36.51,15-5.25,1.62-2.57,2.6-6.84.5-9.75-3.18-4.39-12-3.72-14,0-1.7,3.1,1.64,7.7,2.25,8.5,4.61,6.07,13.08,5.82,15.5,5.75a11.22,11.22,0,0,0,4.75-1c2.56-1.22,6-4.21,5.25-6.75-.81-2.79-6.46-4.44-8.75-2.25-1.25,1.2-1.36,3.4-.75,5,1.43,3.77,7.31,5.41,11.75,4.5,6-1.23,11.45-7.57,10-11.5-1.25-3.39-7.71-5.25-9.75-3.25s.13,7.05,2.5,10c.23.29,5.15,6.21,11.75,5,3.78-.7,6-3.35,8-5.75,1.86-2.23,4.56-5.46,3.5-7.75-1.16-2.52-6.65-3.5-10.25-1a8,8,0,0,0-3,9c1.5,3.77,6.49,4.41,11,5,4.29.56,9.76,1.27,12.75-2.25,2.23-2.63,3.11-7.64.5-10a5.71,5.71,0,0,0-6-.75c-3.25,1.5-4.26,6-3,8.75,2.26,4.89,11.55,3.33,12,3.25,5.71-1,12.08-5.37,11.5-9-.49-3.09-6.07-5.89-8.5-4.25-1.75,1.19-1.78,4.64-.75,7,1.29,3,4.32,4.39,6.75,5.25,10.17,3.6,37,7,41.5-3.5,1.1-2.6.87-6.14-1-8-2.75-2.74-9.23-2.07-11,1.25-1.26,2.35.25,5.29.5,5.75,2.83,5.29,11,6.29,16.5,5.25,2.62-.5,6.58-1.25,8-4.5,1.2-2.75.59-7.27-2.5-8.5a5.58,5.58,0,0,0-6.75,2.75c-1.12,2.54.74,5.25,1.25,6,3.33,4.85,10.35,4.77,11.75,4.75s8.14-.1,11.25-4.75c.45-.67,1.85-2.76,1.25-5-.91-3.4-6.07-5.86-9.5-4-2.5,1.36-3.49,4.7-3,7.25,1,5.16,8.28,8,13.75,7.75a16.14,16.14,0,0,0,9-3.5c.74-.55,7.42-5.57,6-9-1.07-2.6-6.69-4-10-1.5a6.72,6.72,0,0,0-2.5,6c.63,5.17,7.83,7.23,8.75,7.5,4.55,1.31,11.18.88,14.75-3.5,2.22-2.72,3.53-7.31,1.75-9s-5.51-.28-7.75,1.5c-1.65,1.31-3.92,4.11-3.25,6.5,1.06,3.78,9,5.2,15,4,8.39-1.69,15.74-9.17,14.5-12.25-1.09-2.71-9.5-3.65-12.5.25a6.81,6.81,0,0,0-1,5.25c1.1,5.52,8.34,7.5,9.25,7.75s7.89,2,12.75-2.25c.79-.7,3.53-3.12,3.25-6.5-.14-1.61-1-3.84-2.75-4.5-3-1.11-7.57,2.67-7.5,5.75.07,3.51,6.22,6.68,11.25,6a11.32,11.32,0,0,0,6.5-3.5c.52-.53,4.88-4.94,3.25-8-1.17-2.2-5.17-3.18-7-1.75-3.1,2.42-1.58,13,3.5,14.5,2.67.77,5.56-1.21,7-2.75,2.76-2.95,3.38-7.63,1.5-12"/><path class="cls-1" d="M39.24,138.09a8.51,8.51,0,0,0-3,8.25c1,4.13,5.51,6.14,8.75,6,7-.3,12.18-10.78,9.75-14.5-2.17-3.33-11.43-2.75-13,.75-1.25,2.78,2.58,6.94,4.25,8.75s5.45,5.91,11.5,6.5c5.4.52,13.25-1.7,14.25-6.75.63-3.17-1.43-7.62-5.25-8.75a7.26,7.26,0,0,0-7.5,2.25,7,7,0,0,0-1.25,6.5c1.84,5.26,11.73,7.46,19,5,3-1,9-4,8.75-8-.2-2.86-3.6-6.19-6.75-5.5a4.93,4.93,0,0,0-3.75,4.5c0,1.61,1.17,2.66,3.25,4.5,3.46,3.06,5.43,4.8,8.25,4.75,2.39,0,4.09-1.45,7.5-4.25,3-2.51,4.57-3.76,4.5-5.5-.12-2.89-4.45-5.9-7-4.75-1.8.81-2.32,3.51-2.25,5.25.19,4.71,5,8.37,9,9.75,1.05.36,7.17,2.47,12-1.25,2.64-2,5.95-6.62,4-10.5s-8.42-5.24-11-2.75c-1.81,1.75-1.56,5.21-.5,7.5,2.52,5.42,10.67,6.54,15.75,6,5.27-.56,12.67-3.49,12.75-7.5.05-2.56-2.87-5.52-6.25-5.75-3.87-.26-7.33,3.14-7.25,5.75.13,4,8.59,6.82,13.25,7.75,14.92,3,31.82-5.16,31.5-10.25-.14-2.24-3.68-4.69-5.5-4-1.54.59-1.73,3.39-1.75,3.75-.24,4.25,3.4,9.36,8.5,10.75s11.7-.67,13-5.25c1-3.64-1.41-8.78-4.75-9.25-2.53-.36-4.66,2.09-5,2.5a8,8,0,0,0-1.25,8c2.15,4.84,10.43,5.78,16,3.75,1.12-.41,7.08-2.59,7.5-7.25.28-3.1-1.92-6.87-4.5-7s-5.44,3.66-5.25,6.75c.3,5,8.4,9.06,15.25,9,5.74,0,13.5-3,13.75-7.5.2-3.64-4.56-7.79-9.25-8a7.69,7.69,0,0,0-5.5,1.75,7.88,7.88,0,0,0-2,8.25c2.27,5.62,14.25,7.54,21.75,3.25a14.89,14.89,0,0,0,6.85-8.51c.49-1.74.28-2.65-.1-3.24-1-1.48-3.52-1.73-5.25-1-2.4,1-3.65,4.12-3.25,6.5.73,4.35,7,6.54,11.25,6.75,4.09.21,10.29-1.21,11-4.75.5-2.48-1.68-6.13-4.5-6.25a5.05,5.05,0,0,0-4.75,4.25c-.39,3.46,4.46,7.08,8.75,7.75,7.07,1.1,15.19-5.39,14.5-10-.61-4-8.14-7.62-11-5.5-2.15,1.59-1.53,6.31,0,9.25,2,3.81,6.84,7.25,11,5.75a7.74,7.74,0,0,0,4-3.75"/><path class="cls-1" d="M67.74,97.34c-.48.51-3.34,3.67-2.75,7.75.73,5,6.34,9.22,10.5,7.75s6.24-8.84,3.75-11.5a5,5,0,0,0-8,5.75c1.71,4,8.07,5,12.25,4.5,4.73-.59,11.08-3.66,11.25-8a6.08,6.08,0,0,0-3.5-5.5A6.22,6.22,0,0,0,84,99.84a6.72,6.72,0,0,0-1,5.5c1.47,5.41,10,7.53,15.25,7.75,3.22.14,9.48.4,12.75-4,1.66-2.24,3.38-6.81.75-10a7.49,7.49,0,0,0-10-1,6.79,6.79,0,0,0-2.5,6.5,6.63,6.63,0,0,0,2.25,3.5c2.61,2.4,8.71,6.23,16,4.5.94-.22,9.29-2.31,10-7.75.29-2.24-.67-5.35-3.25-6.5a6,6,0,0,0-7.5,2.75c-1.09,2.53.75,5.26,1.25,6,1.92,2.86,5.22,4.47,10.75,5.5,4.4.82,20.08,3.13,32.75-6,2.19-1.58,5.21-3.8,4.75-5.75-.52-2.21-5.53-4.08-8.5-2-2.21,1.54-2.48,4.7-2,6.75,1.27,5.42,8.69,6.94,9,7,7.5,1.43,16.29-3.93,16.25-8.5,0-2.57-2.83-5.32-5.75-5.5-3.72-.23-7.19,3.73-7,6.75.27,4.29,8,7.86,14.5,7.25,6.65-.62,13.55-5.8,13-10-.39-2.93-4.48-6-7.5-5-2.35.76-3.63,3.83-3.5,6.25.27,5,6.59,8.7,11.75,9.5.57.09,9.93,1.41,13.5-4.75,1.59-2.75,2.5-7.8-.75-10.75-2.76-2.51-7.58-2.65-10.25,0-3,3-1.56,7.93-.25,10.25,2.83,5,9.95,7,15.25,4.75,3.92-1.64,7.69-5.94,7-10-.46-2.68-2.88-5.37-4.5-5s-2.45,3.89-2,6.5c.85,4.93,6.29,7.21,7,7.5"/><path class="cls-1" d="M145.49,61.59c3.88,1.94,8.23,1.61,10.75-.75,4.31-4,2-12.8-1.5-14-2.77-.94-7.45,2.41-7.25,5,.27,3.52,9.74,8.33,16,4.5,4.33-2.65,6.46-9,4.25-13.25-1.68-3.22-6-5.45-7.75-4.25-1.35.93-1.34,4.09,0,6,2.45,3.48,9.44,3,14,.75,4.82-2.36,9.95-8.13,8.25-12s-9.84-5.41-12.5-2.25a5.62,5.62,0,0,0,0,6.5c1.6,2.18,4.52,2.22,6.25,2.25,4.05.06,11.93-1.62,13.25-7.5,1.27-5.64-4.18-12.13-7.5-11.75a3.77,3.77,0,0,0-3,3.5c0,2.77,4.63,5.18,8.5,5.25.34,0,5.7,0,8.25-4,3.18-5-.15-12.91-3.5-13.5-2.26-.4-5.36,2.39-5.25,4.75.2,4.14,10.36,8.59,13.75,5.5.5-.45,1.5-1.66,1.25-4.75"/><path class="cls-1" d="M42.24,58.09a7.76,7.76,0,0,0-5.75,7.5c.2,3.93,4,6.14,6.5,6.75,5.86,1.43,12.66-3.93,12.25-7.5-.28-2.49-4.2-5.12-7.5-4.25-1.93.51-3.93,2.28-4,4.25-.15,4,7.61,9.11,14.75,8.25,3.81-.46,9.65-2.87,10.25-7.5.34-2.66-1-6.32-4.25-7.5s-7.11.44-8,3c-1.06,3.06,2.66,6.34,4.25,7.75a17.71,17.71,0,0,0,11,4.25c7.34,0,15.57-5,15.25-9.5-.21-3-4.22-5.86-8-6-.53,0-4.36-.16-6,2.5-1.53,2.48-.08,5.6.25,6.25,2.44,4.86,9.41,6.13,14,5.75,1-.09,8.75-.73,10.75-5.75.74-1.86.88-4.79-.75-6-1.87-1.38-5.51-.11-6.75,2.25a5.22,5.22,0,0,0-.25,3.75c.92,3.55,4.88,6.68,9.25,6.75,5.4.09,8.52-4.54,9-5.25.36-.54,3.8-5.64,1.5-8.5-1.49-1.85-5.06-2.35-6.75-.75-1.53,1.44-1,4.08-.75,5.25.76,3.75,3.9,8.44,9.25,9.5a11.64,11.64,0,0,0,10.5-3.25c1.83-1.9,4.88-6.45,2.75-9.5-1.79-2.56-6.5-3-8.75-1-1.66,1.48-1.71,4.06-1.75,6a8.67,8.67,0,0,0,.5,3.75c1.4,2.9,6.71,3.46,12,3.25,20.88-.82,33.42-1,39.75-8.75.93-1.13,2.62-3.2,2-4.25-.88-1.48-6.47-1.13-8.5,2s.13,7.81,3,10c3.13,2.39,7,1.61,10,1s6.51-1.31,7.5-4-.69-7.2-4.25-8a5.94,5.94,0,0,0-6.5,3.25,5.58,5.58,0,0,0,.25,4.75c2.81,5.13,13.91,4.29,20.75,2,2.85-1,5.49-1.88,6.25-4.25.94-2.9-1.15-7.37-4.75-8a6.13,6.13,0,0,0-5.75,2.5,6.64,6.64,0,0,0-1,5.75c2,6.15,16.7,9.57,22,4,1.72-1.81,3-5.13,1.75-7.75-1-2.1-3.67-4-6-3.25a4.76,4.76,0,0,0-2.75,2.75c-1.19,2.86.53,5.87.75,6.25,3.84,6.71,20.85,6.87,23.5,1.5,1.26-2.55-.66-6.49-3-8.5-.18-.15-3.92-3.28-6.75-1.75a5.21,5.21,0,0,0-2.25,3.5c-.07.29-.76,3.37,1,5.25.92,1,2.39,1.5,6,1.25,4.27-.3,13-.91,14.25-5.5.76-2.71-1.19-6.39-3-6.5-1.41-.09-2.74,2-3.25,3.5-1.14,3.36.45,7.74,3.75,10,.19.13,4.26,2.82,8.5,1,4.47-1.92,7-7.95,5-11-1.29-2-4.7-3.08-6.5-1.75s-1.19,5-.5,6.75c1.43,3.61,6,7.68,10,6,3.21-1.34,5.19-5.95,3.5-10.5"/><path class="cls-1" d="M369.62,76.75A11.2,11.2,0,0,0,358.87,81c-2.15,2.92-3.21,7.61-1,10.75,3.14,4.47,11.58,3.89,15.5-.25,2.63-2.77,4.08-8,1.75-10.25s-7.83-1.19-9,1.5a4.57,4.57,0,0,0,.5,3.75c2.46,4.27,10.87,5.94,16.75,2.75,5-2.69,8.46-9,6.75-11.75-1.33-2.12-6.17-2.61-8-.5-1.37,1.58-.66,4.16-.5,4.75,1.32,4.83,7,8,12,8.75,6.32.89,14.43-1.81,15-6,.36-2.66-2.33-5.82-5.5-6.75-3.62-1.06-7.95.76-9,3.75a6,6,0,0,0,.5,4.5c2.64,5.1,11.55,6.52,18.25,5,6.55-1.48,13.92-6.43,13.25-10.25-.48-2.74-5.16-5.29-9.25-4.25-2.17.55-4.92,2.31-5.25,4.75-.65,4.81,8.16,11.94,15.75,10.5,3.12-.59,7.1-2.83,8-6.5.64-2.61-.28-5.93-1.75-6.25-1.78-.39-4,3.72-5,5.5-3.58,6.55-6.37,17.35-2.5,20,1.92,1.31,5.48.62,7-1.5s.91-6-1-7.25c-3-2-9.6,1.42-12.75,6.25-3.33,5.09-4,13.69.75,17.25,2.84,2.1,8,2.73,11-.25,2.52-2.5,3.23-7.25,1-9.5-2.39-2.4-7.17-1-9.75.75-5.61,3.73-6.39,12.51-4.25,18.5.59,1.64,2.73,7.64,7.25,8,2.7.22,6.44-1.56,7-5s-2.59-6.77-5.5-7c-2.38-.19-4.18,1.65-5.5,3-.53.54-6.69,7.06-4.5,15.25.85,3.16,3.68,9.34,8.25,9.25,3.42-.06,7.25-3.62,6.75-6.75s-5.56-5.25-9-4.25c-5.71,1.67-6,11.35-6,12.25,0,1.21-.26,9.59,4.75,11.75,2.51,1.09,6.38.62,7.75-1.75s-.45-5.72-1.75-7.25c-3.53-4.17-11.55-5.57-15.5-1.5a8.76,8.76,0,0,0-2,8.25c.83,3,3.46,5.72,4.75,5.25,1.47-.54,1.84-5.51-.25-9-2.24-3.74-7-5.2-10.75-4.75-1.24.15-5.68.68-7.25,4.25-1.31,3-.29,7.39,2.75,8.75a5.25,5.25,0,0,0,5.5-.75c2.51-2.3,1.07-6.79,1-7-2.09-6.23-12.36-10.49-19.5-7.25a11.66,11.66,0,0,0-6.25,6.75c-.28.91-1.56,5,1,7.75a7,7,0,0,0,9.5.25c2.38-2.34,1.91-6.22.75-8.5-2.61-5.12-10.74-6.09-16.25-4.25-.61.2-7.75,2.68-8,7.5-.13,2.53,1.65,5.61,3.75,5.75,2.35.15,4.1-3.43,4.25-3.75,2.2-4.64.75-12.62-4.25-14.25-4.66-1.52-10.94,3-10.75,6a3.31,3.31,0,0,0,2.5,2.75c4.05.92,12-6.87,11.25-14.75-.56-6-6.08-11.91-9.75-11-2.74.68-5.22,5.37-3.75,9.25.94,2.5,3.54,4.73,6,4.5,4.51-.43,7.2-9,7.5-15,.17-3.24.55-10.76-4.5-13.75-3.43-2-9.35-2-11.75,1.75-1.78,2.76-1.45,7.31,1.25,9.25,3.44,2.47,8.46-.88,9-1.25,4.69-3.22,6.6-10.14,4.75-15.75-2.15-6.53-9.44-11.45-13-9.75-2.42,1.15-3.84,5.69-2,8.5s6,2.68,8.5,1.75c4.43-1.65,6.25-7,6.25-10.75,0-5.83-4.46-11.41-11.25-14"/><path class="cls-1" d="M437.87,239.25a9.93,9.93,0,0,0-10.75,4.25,8.63,8.63,0,0,0,0,9c2,3.05,6.14,4.63,9.5,3.25,4.56-1.87,6.11-8.55,4-10.75s-8.41-.68-9,1.75c-.49,2,2.9,4.79,6,5.75a11.83,11.83,0,0,0,10.75-2.5c6.42-5.45,5.85-17.43,2.25-19.25-2.12-1.07-6,1-7.5,4a8.23,8.23,0,0,0,1.5,9.25c4.22,4.11,14.36,2.08,18.75-4,4-5.53,3.27-14.48-.25-16.25-2.39-1.2-6.82.53-7.75,3.5-.81,2.57,1.22,5.37,3,6.75,4.28,3.3,11.57,1.76,16-1.5,7.78-5.72,9.47-18.71,5.5-21.75-2.82-2.16-10-.42-12.5,4.75-1.76,3.58-1.2,8.56,1.5,10.5,4.61,3.31,13.51-3.66,16.5-6,3.89-3,7.4-5.8,7.25-9.75-.17-4.6-5.22-9.18-8-8.25-2.26.75-3.81,5.4-2,8,1.64,2.35,5.28,1.94,7,1.75.83-.09,7.16-.9,9.5-6,2.71-5.9-1.59-13.87-5.25-14.25-2-.21-4.69,1.87-5,4.25a4,4,0,0,0,1.5,3.75c2.73,1.7,9-1.74,12-6.5,3.43-5.36,3.24-13.09,1-14-1.71-.7-5.19,2.36-6,5.75-1.35,5.65,4.7,12.08,9,11.5,3.36-.45,5.09-5.08,6.75-9.5,2-5.3,4.58-16,.75-18.25-2.68-1.57-8.37,1.05-9,4.25-.93,4.77,9,12.75,14,10,2.75-1.52,3.79-6.22,3-11.25"/><path class="cls-1" d="M514.62,262.25c2.32,3.6,6.39,5.27,9.75,4.25,4.55-1.37,5.91-7.07,5.25-10.75-1.19-6.68-9.84-11.12-13.5-9-2.61,1.51-3.73,7-1.25,9.75,2,2.3,5.89,2,8.25,1,5.16-2.24,7.39-9.88,5.75-15.75-1.72-6.16-8-11.57-12-10.25-2.57.85-4.6,4.65-3.5,7s5,2.84,7.75,2c6.09-1.88,7.55-11.17,8-14,.71-4.49,1.48-9.39-1.75-12-2.85-2.31-7.9-2.09-11,.75-2.77,2.54-4.11,7.31-2,10,1.79,2.28,5.64,2.52,8.25,1.5,7.59-3,10.66-18.81,5-23.5-2.53-2.1-7-2.11-10-.5-2,1.07-4.27,3.33-3.75,4.75s4.15,2,6.75,1c4.76-1.77,8.14-9.08,5.5-14-1.77-3.29-6.39-5.82-9-4.25-2.15,1.29-2.94,5.36-1.5,6.75,2.31,2.22,12.24-.63,14.25-7.5a10.67,10.67,0,0,0-2.75-10.5c-.2-.19-4.75-4.36-8-2.25-2.62,1.7-2.92,6.54-.75,8.5s6.34.45,8.5-1.25c4.91-3.88,5.72-13.48,1.25-19.5-3.47-4.67-11-8.4-15.25-5.25-3.37,2.51-4.3,9.14-1.25,12.25,3.31,3.38,9.86,1.12,13.25-1.5,5-3.87,5.34-10.25,5.5-13.25.31-5.89-1.36-15.75-6.75-17-3.28-.76-8.3,1.6-9,5.75a7.52,7.52,0,0,0,6.25,8.25c2.92.25,5.17-2.14,5.75-2.75,4.3-4.58,3.79-12.67,1-18.25-1.94-3.87-6.52-9.61-10.25-8.5-3,.89-5.37,6.22-3.5,9,1.31,1.95,4.4,2.23,6.5,1.75,5-1.16,8.21-7.58,8.25-13,0-5.95-3.66-13-8.25-13.25-2.66-.17-6,1.89-6.25,4.5-.2,2.41,2.33,4.92,4.75,5.25,4.43.6,9.95-5.93,10.5-12.5.4-4.75-1.61-11.72-6.5-12.75-3.35-.71-8.07,1.38-9,5.25a6.55,6.55,0,0,0,2.75,7c3,1.72,6.61-.43,8-1.25,4.17-2.47,8.56-8.32,7-14.5-1.94-7.68-12-11.72-16.5-9-2.56,1.56-3.9,5.73-2.5,8,1.74,2.83,7.6,2.55,11.25.25,4.91-3.09,5-9.35,5-10.25,0-6.15-4.46-12.77-8.5-12.5-2.12.14-3.92,2.17-4.75,3.75-.23.44-1.71,3.26-.5,5.5,1.51,2.79,6.4,3.19,9.5,1.75,5.63-2.62,5-11.52,5-12-.5-6.47-5.33-13.61-10-13.25-2.91.22-6.1,3.38-5.75,6.25s3.89,4.3,5.75,4.75a7.81,7.81,0,0,0,5-.25c4.42-2,6.16-9.85,3.5-15.25-1.86-3.77-6.29-7.25-9.75-6.25a4.84,4.84,0,0,0-3.5,3.75,4.31,4.31,0,0,0,1.75,3.75c2.24,1.68,5.69.57,7.5-.5,4.1-2.43,5.46-8,5-12.25-.75-6.94-6.82-13.49-10.5-12.5-2.23.6-3.25,4.24-3.75,6-.57,2-1.26,4.46,0,6.5,1.52,2.47,5.31,3.39,8,2.5,5.81-1.91,6.2-12.08,6.25-13.5.17-4.35-.76-13.09-6-15-2.28-.83-5.72-.5-7.5,1.75-1.09,1.38-1.67,3.64-.75,5.25,1.43,2.51,5.84,2.31,8.5,1.25,3.05-1.22,6.74-4.73,5.75-8.5-.93-3.52-5.26-4.69-5.5-4.75"/><path class="cls-1" d="M537.12,172.75c-.8-.28-4.13-1.37-6.25.25-3.09,2.37-2.31,9.53,1.75,12.25s10.89.29,11.25-2c.28-1.79-3.15-4.61-5.5-4-3.39.88-6,9.27-2.75,15,2.19,3.88,7.41,7.15,11.5,5.5,2.2-.89,4.8-3.49,4.25-6.5-.51-2.75-3.41-4.57-6-4.5-3.09.08-5.26,2.85-6,5-1.75,5.08,2.72,11.75,8.25,14.25,4.75,2.15,11.86,1.94,13.5-1.5,1.18-2.47-.32-6.92-3.5-8-2.83-1-5.92,1.11-7.25,3.25-2.6,4.16.13,10.65,4.25,13.75.3.22,5.54,4,10,1.75,2.22-1.14,4.58-4,3.75-6.25-.6-1.64-2.66-2.47-4.25-2.5-2.92-.06-5.47,2.54-6.25,5-1.46,4.61,2.85,10.21,7.5,12.5,5,2.46,12.17,2,13.75-1.25.86-1.77,0-4.32-1.5-5.75a6.25,6.25,0,0,0-7.5-.5c-3.37,2.43-3,9.59.5,13.75,3.19,3.8,8.39,4.4,12,3.5.83-.21,6-1.5,6.75-5.25.36-1.87-.39-4.4-2.25-5.25s-4.54.35-5.75,2c-3.13,4.27,2.21,12.31,3,13.5,1.61,2.43,2.93,4.42,5.5,5.25,4,1.28,9.62-.57,11-4.75a6.66,6.66,0,0,0-1.75-7c-2.83-2.39-7.72-1.54-9.25,1-1.1,1.83-.22,4.12.5,6,.5,1.31,2.7,7,8.5,9s13.39-.32,14.25-4c.71-3-3.11-7.48-5.5-7-2,.4-2.73,4.13-3,5.5-.32,1.63-1.35,6.82,2,9.5a6.56,6.56,0,0,0,5.5,1.25c3.55-.89,6.29-5.4,5.75-11"/><path class="cls-1" d="M454.62,153.5a6.84,6.84,0,0,0-6.75,5c-.92,3.92,2.5,7.74,6,8,3.72.28,6.08-3.57,6.5-4.25,1.75-2.85,2.27-7.12.75-8s-5.22,1.31-5.75,4c-.63,3.23,3.5,6.51,7,7.5a9.59,9.59,0,0,0,7.75-1c4.32-2.93,5.68-10.18,2.75-12.75-2.11-1.85-6.7-1.47-8.5,1-2.54,3.49,1.93,9.11,2.25,9.5,2.86,3.51,8.77,6.64,14,4.25,6-2.76,8-11.4,5.75-13.75-1.28-1.35-4.31-1-6.25.25a6.21,6.21,0,0,0-2.75,5.25c.18,4.33,6,8.25,11.25,7.75.4,0,5.43-.59,7.5-4.75,1.85-3.71.58-8.75-1.25-9.25-1.29-.35-3,1.53-3.75,3a7,7,0,0,0-.25,5.25c1.1,3.5,5.14,7.4,10,6.5a8.86,8.86,0,0,0,7-8c0-.43.25-4.6-2.5-5.75a4.39,4.39,0,0,0-5.25,1.75c-1.31,2.1.39,4.9.75,5.5,3.61,6.08,14.4,5.87,20.5,5.75,6.41-.13,11.54-.3,15.75-4,3.22-2.83,5.89-7.72,4.5-9.5s-6.39-1-7.75,1.5c-1.71,3.11,2.25,9.49,7.5,11.25.7.23,4.23,1.42,7.25-.5,4-2.53,4.74-9,3-10.25-1.33-1-4.92.55-6.25,3.25a5,5,0,0,0-.5,3.25c.77,3.39,6.08,5.64,10.25,5.25,7.13-.66,12.89-9.21,11.25-12.75-1.13-2.43-6.25-3.6-8.75-1.5-2.15,1.8-1.57,5.34-1.5,5.75.95,5.35,7.42,7.76,8.75,8.25,1.64.61,7.6,2.83,12.5-.5a10.78,10.78,0,0,0,4.5-7c.15-1.08.56-4-1.25-5.75-2.09-2.06-6.08-1.6-8.5.25a7.88,7.88,0,0,0-2.5,8.75c2,4.94,10.76,6.29,16.75,3.75,5.5-2.33,10-8.53,8.5-11.75-1.15-2.43-6-3.67-8.25-1.75-2.6,2.21-.45,7.52-.25,8,2.09,5,7.4,6.68,8.5,7"/><path class="cls-1" d="M456.87,87.75c.18.38,2.16,4.47,5.5,4.75,4.64.39,9.2-6.79,7.25-10.75-1.5-3.05-7-4.45-9-2.5s0,6.54.25,7A13.7,13.7,0,0,0,473.12,94c5.7,0,12.34-3.91,12.25-8.25-.07-3.34-4.14-7.33-7.5-6.5-2.3.57-3.76,3.25-4,5.5a7.8,7.8,0,0,0,1.75,5.5c3.25,4.22,11.07,6.1,16.25,2.5,4.32-3,6.59-9.65,4.25-12.5-1.55-1.89-5.35-2.38-7-.75-2.1,2.07.12,6.71.5,7.5,1.45,3,5.21,7.63,10.25,7.25,6.56-.49,11.05-9.11,9.25-12.5-1.12-2.11-5.17-3.16-7.5-1.5-2,1.43-2.35,4.61-1.5,6.75.43,1.09,1.85,3.62,11.25,5.5,8.45,1.68,16.94,3.38,25-1.25,3.15-1.81,9-6.17,8-9.5-1.1-3.71-10.32-5-11.75-2.75-.87,1.4,1.17,4.13,2.75,6.25a18.59,18.59,0,0,0,9,7c2.43.83,7.08,2.41,10,0,4-3.34,2.44-12.44-.25-13.25-2-.6-5.73,3-5.75,6.5,0,4.54,6.33,8.32,11.5,7.5,3.61-.57,7.74-3.55,7.75-7.25,0-3.11-2.89-6.39-4.75-6-1.43.3-2.34,2.79-2.25,4.75.19,4.18,5.07,8.62,10,8.25,6.09-.46,10.49-8.11,8.75-11.75-1.26-2.64-6.16-4-8.25-2.25s-.51,6.72.5,8.75c1.4,2.82,5.1,7.58,9.25,6.75s6.61-7.12,5.5-11.75a10,10,0,0,0-2.5-4.5"/></svg>